# xmcd
#
# Track frame offsets:
#	150
#	17453
#	27665
#	41041
#	53978
#	70149
#	94073
#	117483
#	157971
#	185420
#	203047
#	230123
#	255306
#	264322
#
# Disc length: 3819 seconds
#
# Revision: 2
# Processed by: cddbd v1.5.2PL0 Copyright (c) Steve Scherf et al.
# Submitted via: EZCDAudioConverter 2.1.7.1
#
DISCID=bc0ee90e
DTITLE=V/A - This Is It!
DYEAR=2016
DGENRE=MOJO
TTITLE0=Josefin Öhrn and The Liberation - Sunny Afternoon
TTITLE1=Cate Le Bon - I Was Born On The Wrong Day
TTITLE2=Bevis Frond - Hot Sauce Or Nothing
TTITLE3=White Fence - To The Boy I Jumped In The Hemlock Alley
TTITLE4=Gnoomes - Myriads
TTITLE5=Fuzz - Let It Live
TTITLE6=Chemistry Set - Albert Hofmann
TTITLE7=Black Mountain - Space To Bakersfield
TTITLE8=Heron Oblivion - Your Hollows
TTITLE9=Goat - It's Time For Fun
TTITLE10=Cavern Of Anti-Matter - Planetary Folklore
TTITLE11=Flying Saucer Attack - Feedback Song
TTITLE12=Spacin' - Human Condition
TTITLE13=Thee Oh Sees - Web
EXTD=
EXTT0=
EXTT1=
EXTT2=
EXTT3=
EXTT4=
EXTT5=
EXTT6=
EXTT7=
EXTT8=
EXTT9=
EXTT10=
EXTT11=
EXTT12=
EXTT13=
PLAYORDER=
